# xmcd
#
# Track frame offsets:
#	150
#	17021
#	38371
#	55740
#	71793
#	92189
#	106518
#	123570
#	141741
#	160124
#	178382
#	193954
#	216569
#	234872
#	253763
#	270941
#	283918
#	299803
#	320133
#
# Disc length: 4493 seconds
#
# Revision: 0
# Processed by: cddbd v1.5.2PL0 Copyright (c) Steve Scherf et al.
# Submitted via: EasyCDDAExtractor 11.6.0.1
#
DISCID=30118b13
DTITLE=WestLife - The Love Album
DYEAR=1900
DGENRE=pop
TTITLE0=The Rose
TTITLE1=Total Eclipse of the Heart
TTITLE2=All Out of Love
TTITLE3=You Light Up My Life
TTITLE4=Easy
TTITLE5=You are so Beatutiful
TTITLE6=Have You Ever Been in Love
TTITLE7=Love Can Build A bridge
TTITLE8=The Dance
TTITLE9=All or Nothing
TTITLE10=You've Lost That Loving Feeling
TTITLE11=My Love
TTITLE12=You Raise Me Up
TTITLE13=Seasons In the Sun
TTITLE14=That's Where You Find Love
TTITLE15=Amazing
TTITLE16=I Lay My Love
TTITLE17=If I Let You Go
TTITLE18=Run to You
EXTD=
EXTT0=
EXTT1=
EXTT2=
EXTT3=
EXTT4=
EXTT5=
EXTT6=
EXTT7=
EXTT8=
EXTT9=
EXTT10=
EXTT11=
EXTT12=
EXTT13=
EXTT14=
EXTT15=
EXTT16=
EXTT17=
EXTT18=
PLAYORDER=
